HIERARCHY
ROOT Hips
{
	OFFSET 0.000000 0.000000 0.000000
	CHANNELS 6 Xposition Yposition Zposition Zrotation Yrotation Xrotation 
	JOINT LowerBack
	{
		OFFSET 0.000000 0.000000 0.000000
		CHANNELS 3 Zrotation Yrotation Xrotation
		JOINT Spine
		{
			OFFSET 0.028270 2.035590 -0.193380
			CHANNELS 3 Zrotation Yrotation Xrotation
			JOINT Spine1
			{
				OFFSET 0.056720 2.048850 -0.042750
				CHANNELS 3 Zrotation Yrotation Xrotation
				JOINT Neck
				{
					OFFSET 0.000000 0.000000 0.000000
					CHANNELS 3 Zrotation Yrotation Xrotation
					JOINT Neck1
					{
						OFFSET -0.054170 1.746240 0.172020
						CHANNELS 3 Zrotation Yrotation Xrotation
						JOINT Head
						{
							OFFSET 0.104070 1.761360 -0.123970
							CHANNELS 3 Zrotation Yrotation Xrotation
							End Site
							{
								OFFSET 0.000000 0.000000 0.000000
							}
						}
					}
				}
				JOINT LeftShoulder
				{
					OFFSET 0.000000 0.000000 0.000000
					CHANNELS 3 Zrotation Yrotation Xrotation
					JOINT LeftArm
					{
						OFFSET 3.362410 1.200890 -0.311210
						CHANNELS 3 Zrotation Yrotation Xrotation
						JOINT LeftForeArm
						{
							OFFSET 4.983000 -0.000000 -0.000000
							CHANNELS 3 Zrotation Yrotation Xrotation
							JOINT LeftHand
							{
								OFFSET 3.483560 -0.000000 -0.000000
								CHANNELS 3 Zrotation Yrotation Xrotation
								JOINT LeftFingerBase
								{
									OFFSET 0.000000 0.000000 0.000000
									CHANNELS 3 Zrotation Yrotation Xrotation
									JOINT LeftHandIndex1
									{
										OFFSET 0.715260 -0.000000 -0.000000
										CHANNELS 3 Zrotation Yrotation Xrotation
										End Site
										{
											OFFSET 0.000000 0.000000 0.000000
										}
									}
								}
								JOINT LThumb
								{
									OFFSET 0.000000 0.000000 0.000000
									CHANNELS 3 Zrotation Yrotation Xrotation
									End Site
									{
										OFFSET 0.000000 0.000000 0.000000
									}
								}
							}
						}
					}
				}
				JOINT RightShoulder
				{
					OFFSET 0.000000 0.000000 0.000000
					CHANNELS 3 Zrotation Yrotation Xrotation
					JOINT RightArm
					{
						OFFSET -3.136600 1.374050 -0.404650
						CHANNELS 3 Zrotation Yrotation Xrotation
						JOINT RightForeArm
						{
							OFFSET -5.241900 -0.000000 -0.000000
							CHANNELS 3 Zrotation Yrotation Xrotation
							JOINT RightHand
							{
								OFFSET -3.444170 -0.000000 -0.000000
								CHANNELS 3 Zrotation Yrotation Xrotation
								JOINT RightFingerBase
								{
									OFFSET 0.000000 0.000000 0.000000
									CHANNELS 3 Zrotation Yrotation Xrotation
									JOINT RightHandIndex1
									{
										OFFSET -0.622530 -0.000000 -0.000000
										CHANNELS 3 Zrotation Yrotation Xrotation
										End Site
										{
											OFFSET 0.000000 0.000000 0.000000
										}
									}
								}
								JOINT RThumb
								{
									OFFSET 0.000000 0.000000 0.000000
									CHANNELS 3 Zrotation Yrotation Xrotation
									End Site
									{
										OFFSET 0.000000 0.000000 0.000000
									}
								}
							}
						}
					}
				}
			}
		}
	}
}
}
MOTION
Frames: 15
Frame Time: 0.008333
-1.777170 16.703384 1.742229 171.865040 -82.136658 -148.183515 -8.076978 1.411777 -10.173671 -2.240133 1.703539 -4.472551 -4.154478 1.566042 2.260494 10.540958 -7.431372 -8.310345 -0.675763 -0.040596 -0.187512 0.000000 0.000000 0.000000 -0.632465 23.307963 2.893684 -35.138690 8.093499 -50.690136 -0.457082 -70.142834 -0.152924 30.235868 6.734345 1.779345 -0.357257 0.225965 -0.000000 0.000000 0.000000 0.000000 0.000000 0.000000 0.000000 1.686158 -1.478757 -1.935379 37.012768 41.828573 8.468327 -179.154629 74.062310 179.871981 -12.515823 9.192490 -1.111521 0.202615 -0.765189 -0.000000 0.000000 0.000000 0.000000 0.000000 0.000000 0.000000 
-2.012266 16.620624 1.733033 170.513404 -82.300669 -147.251087 -8.470186 1.246822 -9.943734 -2.298269 1.582042 -4.422089 -4.088110 1.445378 2.258133 10.845169 -7.472676 -8.315567 -0.616451 -0.035348 -0.195544 0.000000 0.000000 0.000000 -0.722436 23.320357 2.922751 -35.555602 8.835482 -50.895882 -0.447445 -70.233827 -0.152249 30.859603 6.772470 1.829333 -0.354369 0.220675 -0.000000 0.000000 0.000000 0.000000 0.000000 0.000000 0.000000 1.721722 -1.593671 -1.876851 36.520864 42.420864 8.655201 -179.161185 73.569522 179.876026 -11.973989 9.086621 -1.052201 0.193629 -0.769768 -0.000000 0.000000 0.000000 0.000000 0.000000 0.000000 0.000000 
-2.243991 16.543513 1.724210 168.889465 -82.434473 -146.056459 -8.855771 1.086337 -9.690633 -2.357512 1.466016 -4.365188 -4.031868 1.332517 2.257002 11.099974 -7.512140 -8.312282 -0.566707 -0.030967 -0.201317 0.000000 0.000000 0.000000 -0.862779 23.324773 2.942641 -36.055611 9.404178 -50.958836 -0.442612 -70.159001 -0.150166 31.422755 6.776648 1.866613 -0.348427 0.214318 -0.000000 0.000000 0.000000 0.000000 0.000000 0.000000 0.000000 1.753036 -1.711449 -1.820588 36.265319 42.957345 8.993602 -179.178837 73.140459 179.880813 -11.394581 8.961488 -0.988378 0.183897 -0.772802 -0.000000 0.000000 0.000000 0.000000 0.000000 0.000000 0.000000 
-2.472371 16.473877 1.716109 167.115540 -82.514115 -144.711013 -9.225707 0.938901 -9.429561 -2.416300 1.362565 -4.304101 -3.986471 1.234193 2.262606 11.306393 -7.551750 -8.300487 -0.527374 -0.027554 -0.204463 0.000000 0.000000 0.000000 -1.050210 23.329226 2.951722 -36.661232 9.778062 -50.884130 -0.442691 -69.906171 -0.146723 31.899659 6.788351 1.901185 -0.339155 0.206717 -0.000000 0.000000 0.000000 0.000000 0.000000 0.000000 0.000000 1.786153 -1.831597 -1.766762 36.257680 43.439591 9.508851 -179.207308 72.779242 179.886149 -10.800124 8.831023 -0.924048 0.174056 -0.774488 -0.000000 0.000000 0.000000 0.000000 0.000000 0.000000 0.000000 
-2.697541 16.413230 1.709029 165.322387 -82.517891 -143.339086 -9.577290 0.811630 -9.172004 -2.473761 1.277994 -4.239966 -3.951482 1.156255 2.281784 11.469089 -7.592715 -8.282150 -0.498940 -0.025130 -0.205332 0.000000 0.000000 0.000000 -1.269975 23.350840 2.949203 -37.401567 9.924335 -50.676400 -0.448123 -69.457966 -0.142067 32.263938 6.841806 1.941344 -0.326483 0.197963 -0.000000 0.000000 0.000000 0.000000 0.000000 0.000000 0.000000 1.830024 -1.953290 -1.715977 36.495919 43.868573 10.215583 -179.245669 72.492303 179.891847 -10.208317 8.712155 -0.862308 0.164571 -0.775113 -0.000000 0.000000 0.000000 0.000000 0.000000 0.000000 0.000000 
-2.919580 16.362740 1.703872 163.783523 -82.424667 -142.209050 -9.888915 0.714492 -8.931319 -2.525039 1.219552 -4.175575 -3.927189 1.105141 2.317024 11.589339 -7.633432 -8.257216 -0.482219 -0.023791 -0.203520 0.000000 0.000000 0.000000 -1.529284 23.388147 2.935924 -38.284716 9.859980 -50.341515 -0.459867 -68.817340 -0.136324 32.490191 6.982270 1.998990 -0.310570 0.187954 -0.000000 0.000000 0.000000 0.000000 0.000000 0.000000 0.000000 1.889914 -2.068460 -1.666841 36.960210 44.244782 11.118987 -179.293642 72.284684 179.897760 -9.631187 8.621763 -0.805555 0.155790 -0.775006 -0.000000 0.000000 0.000000 0.000000 0.000000 0.000000 0.000000 
-3.138762 16.323155 1.701090 162.623775 -82.227614 -141.444337 -10.156622 0.650382 -8.712417 -2.568688 1.189636 -4.111283 -3.912274 1.082684 2.372692 11.674677 -7.672781 -8.228824 -0.477307 -0.023492 -0.199894 0.000000 0.000000 0.000000 -1.815344 23.453666 2.913265 -39.325459 9.570679 -49.886112 -0.479348 -67.972527 -0.129745 32.551751 7.231842 2.078821 -0.291808 0.177076 -0.000000 0.000000 0.000000 0.000000 0.000000 0.000000 0.000000 1.975795 -2.173196 -1.618674 37.620280 44.565557 12.208642 -179.350237 72.163539 179.903827 -9.069358 8.575826 -0.754690 0.147671 -0.774488 -0.000000 0.000000 0.000000 0.000000 0.000000 0.000000 0.000000 
-3.355200 16.294893 1.701200 161.946499 -81.929284 -141.149603 -10.369056 0.620394 -8.518193 -2.601971 1.188247 -4.047840 -3.905982 1.088360 2.449656 11.731870 -7.708212 -8.199368 -0.484370 -0.024209 -0.195093 0.000000 0.000000 0.000000 -2.125935 23.547981 2.883537 -40.521168 9.068682 -49.318538 -0.508546 -66.923316 -0.122562 32.421923 7.608800 2.183040 -0.270799 0.165706 -0.000000 0.000000 0.000000 0.000000 0.000000 0.000000 0.000000 2.096044 -2.260842 -1.569410 38.433965 44.826592 13.461552 -179.414843 72.132909 179.910092 -8.511700 8.584612 -0.708717 0.139848 -0.773779 -0.000000 0.000000 0.000000 0.000000 0.000000 0.000000 0.000000 
-3.569115 16.278049 1.704792 161.812942 -81.541872 -141.384857 -10.509794 0.623233 -8.350543 -2.621366 1.212614 -3.986478 -3.907718 1.118947 2.545593 11.766705 -7.736318 -8.170418 -0.503459 -0.025921 -0.189527 0.000000 0.000000 0.000000 -2.465259 23.660626 2.849487 -41.856652 8.386758 -48.648942 -0.549961 -65.679341 -0.114981 32.075807 8.120924 2.309350 -0.248335 0.154244 -0.000000 0.000000 0.000000 0.000000 0.000000 0.000000 0.000000 2.256561 -2.323700 -1.515753 39.349978 45.020373 14.842543 -179.487216 72.196858 179.916707 -7.935741 8.650197 -0.665342 0.131612 -0.772885 0.000000 0.000000 0.000000 0.000000 0.000000 0.000000 0.000000 
-3.780735 16.272343 1.711791 162.134205 -81.084341 -142.060532 -10.579130 0.652630 -8.206979 -2.627030 1.256687 -3.927187 -3.916189 1.168295 2.658507 11.789062 -7.756425 -8.145325 -0.533756 -0.028492 -0.184348 0.000000 0.000000 0.000000 -2.821865 23.787898 2.813321 -43.316545 7.536795 -47.886951 -0.606209 -64.243454 -0.107264 31.494041 8.749109 2.446253 -0.225344 0.143323 -0.000000 0.000000 0.000000 0.000000 0.000000 0.000000 0.000000 2.464083 -2.360315 -1.454960 40.318267 45.138970 16.305634 -179.566446 72.355738 179.923900 -7.308653 8.764460 -0.619973 0.121930 -0.771606 0.000000 0.000000 0.000000 0.000000 0.000000 0.000000 0.000000 
-3.990332 16.277259 1.722121 162.835620 -80.578772 -143.096963 -10.571623 0.702149 -8.086121 -2.618064 1.313589 -3.870942 -3.930312 1.229429 2.782961 11.805798 -7.767887 -8.125250 -0.574301 -0.031820 -0.179990 0.000000 0.000000 0.000000 -3.192667 23.912860 2.776837 -44.874831 6.555185 -47.042093 -0.679743 -62.635479 -0.099604 30.667417 9.462871 2.578358 -0.202794 0.133384 -0.000000 0.000000 0.000000 0.000000 0.000000 0.000000 0.000000 2.719795 -2.369354 -1.383661 41.288255 45.174883 17.798626 -179.651947 72.604719 179.931931 -6.592549 8.907756 -0.567320 0.109633 -0.769469 -0.000000 0.000000 0.000000 0.000000 0.000000 0.000000 0.000000 
-4.197993 16.292046 1.735438 163.811531 -80.050332 -144.384623 -10.488618 0.763936 -7.985289 -2.594900 1.375648 -3.818497 -3.948543 1.294690 2.912559 11.822900 -7.772374 -8.111505 -0.623540 -0.035752 -0.176959 0.000000 0.000000 0.000000 -3.568704 24.019371 2.740854 -46.505598 5.472244 -46.120915 -0.772195 -60.879001 -0.092177 29.603676 10.211467 2.686271 -0.181601 0.124792 -0.000000 0.000000 0.000000 0.000000 0.000000 0.000000 0.000000 3.021133 -2.353859 -1.299450 42.215839 45.120435 19.265995 -179.742676 72.938539 179.941051 -5.747337 9.049161 -0.501294 0.093463 -0.765687 0.000000 0.000000 0.000000 0.000000 0.000000 0.000000 0.000000 
-4.403954 16.315819 1.751255 164.971766 -79.525064 -145.825760 -10.332496 0.829902 -7.902196 -2.557991 1.434980 -3.771211 -3.969084 1.356197 3.038479 11.843699 -7.772405 -8.102738 -0.680049 -0.040194 -0.174938 0.000000 0.000000 0.000000 -3.943143 24.077286 2.705949 -48.180467 4.340946 -45.126064 -0.883588 -59.017583 -0.085096 28.331144 10.938503 2.752695 -0.162506 0.117634 -0.000000 0.000000 0.000000 0.000000 0.000000 0.000000 0.000000 3.362163 -2.319146 -1.199641 43.062192 44.970796 20.653758 -179.837753 73.345655 179.951433 -4.737612 9.150030 -0.416701 0.072357 -0.759317 -0.000000 0.000000 0.000000 0.000000 0.000000 0.000000 0.000000 
-4.608288 16.347594 1.768949 166.228663 -79.029635 -147.327477 -10.110694 0.891840 -7.833068 -2.508519 1.484098 -3.729919 -3.989510 1.406506 3.152289 11.869537 -7.771992 -8.097664 -0.741909 -0.045013 -0.173631 0.000000 0.000000 0.000000 -4.304089 24.061026 2.672147 -49.876399 3.203396 -44.053248 -1.011764 -57.099346 -0.078455 26.901795 11.580874 2.764935 -0.146014 0.111860 -0.000000 0.000000 0.000000 0.000000 0.000000 0.000000 0.000000 3.732635 -2.273927 -1.083641 43.799763 44.721634 21.911185 -179.935752 73.814006 179.963142 -3.536794 9.167484 -0.310454 0.045511 -0.749275 -0.000000 0.000000 0.000000 0.000000 0.000000 0.000000 0.000000 
-4.811101 16.386301 1.787852 167.511418 -78.589859 -148.814873 -9.833712 0.941980 -7.772363 -2.448055 1.516307 -3.694265 -4.007267 1.439005 3.248714 11.900121 -7.776755 -8.096524 -0.806652 -0.050002 -0.173193 0.000000 0.000000 0.000000 -4.638149 23.962134 2.638604 -51.575009 2.075849 -42.887259 -1.152442 -55.170134 -0.072330 25.391101 12.077573 2.718491 -0.132351 0.107317 -0.000000 0.000000 0.000000 0.000000 0.000000 0.000000 0.000000 4.119301 -2.230459 -0.953819 44.412460 44.372508 22.993733 179.965116 74.328306 179.976114 -2.129624 9.060537 -0.183253 0.012457 -0.734507 -0.000000 0.000000 0.000000 0.000000 0.000000 0.000000 0.000000 
